<svg width="74" height="30" viewBox="0 0 74 30" fill="none" xmlns="http://www.w3.org/2000/svg">
    <path d="M30.6324 29.9944C25.7516 29.9944 22.4453 26.7196 22.4453 21.65C22.4453 16.6749 25.7516 13.3056 30.7583 13.3056C34.474 13.3056 37.0245 15.1319 37.0245 17.7455C37.0245 21.0202 33.1514 22.3112 27.2001 22.4372C27.8614 24.8933 29.4673 27.003 32.2068 27.003C34.1906 27.003 35.1037 26.0583 35.765 25.4286C36.1744 25.0507 36.4578 24.7988 36.7411 24.7988C37.056 24.7988 37.2765 24.9877 37.2765 25.586C37.2765 27.5698 34.8518 29.9944 30.6324 29.9944ZM26.8222 19.6033C26.8222 20.1071 26.8537 20.6109 26.9482 21.1462C31.4511 21.0202 33.0255 19.7607 33.0255 17.714C33.0255 16.0136 31.9864 14.7226 30.349 14.7226C28.1448 14.7226 26.8222 16.9582 26.8222 19.6033Z" fill="currentColor"></path>
    <path d="M42.3555 11.9072C40.844 11.9072 39.8364 10.9626 39.8364 9.57708C39.8364 8.1916 40.844 7.24695 42.3555 7.24695C43.8669 7.24695 44.8746 8.1916 44.8746 9.57708C44.8746 10.9626 43.8669 11.9072 42.3555 11.9072ZM39.9938 29.9815C39.49 29.9815 39.1436 29.6666 39.1436 29.2257C39.1436 28.7534 39.427 28.533 39.7104 28.3441C40.0253 28.0922 40.3087 27.8717 40.3087 27.3679V16.169C40.3087 15.6022 39.9938 15.3503 39.6789 15.1299C39.3955 14.9095 39.1121 14.689 39.1121 14.2167C39.1121 13.7444 39.4585 13.398 39.9623 13.398H43.552C44.2763 13.398 44.7171 13.8389 44.7171 14.5946V27.3679C44.7171 27.8717 44.969 28.0922 45.3154 28.3441C45.5988 28.533 45.8822 28.7534 45.8822 29.2257C45.8822 29.6666 45.5358 29.9815 45.032 29.9815H39.9938Z" fill="currentColor"></path>
    <path d="M54.3371 29.9944C50.3066 29.9944 47.6616 26.7196 47.6616 21.8074C47.6616 16.6434 50.527 13.3056 54.841 13.3056C56.7933 13.3056 58.2732 13.9984 59.2809 15.1319V10.4087C59.2809 9.84191 58.9345 9.59 58.6196 9.36959C58.3362 9.14917 58.0528 8.92875 58.0528 8.45643C58.0528 7.9841 58.3992 7.63773 58.903 7.63773H62.5242C63.2169 7.63773 63.6893 8.07857 63.6893 8.83428V27.0345C63.6893 27.6013 64.0041 27.8532 64.319 28.1051C64.6339 28.294 64.8543 28.4829 64.8543 28.8923C64.8543 29.585 63.8782 29.9944 62.6501 29.9944C60.7923 29.9944 59.5957 29.0812 59.3438 27.6642C58.0843 29.2072 56.3209 29.9944 54.3371 29.9944ZM52.0385 19.8237C52.0385 23.0985 53.5814 27.7587 56.4784 27.7587C57.6749 27.7587 58.6826 27.0345 59.2809 25.7435V19.0994C58.5881 16.7378 57.2656 14.7226 55.4078 14.7226C53.298 14.7226 52.0385 16.9583 52.0385 19.8237Z" fill="currentColor"></path>
    <path d="M69.9695 11.9201C68.4581 11.9201 67.4504 10.9755 67.4504 9.59C67.4504 8.20452 68.4581 7.25987 69.9695 7.25987C71.481 7.25987 72.4886 8.20452 72.4886 9.59C72.4886 10.9755 71.481 11.9201 69.9695 11.9201ZM67.6079 29.9944C67.1041 29.9944 66.7577 29.6795 66.7577 29.2387C66.7577 28.7663 67.0411 28.5459 67.3245 28.357C67.6394 28.1051 67.9228 27.8847 67.9228 27.3809V16.169C67.9228 15.6022 67.6079 15.3503 67.293 15.1299C67.0096 14.9095 66.7262 14.689 66.7262 14.2167C66.7262 13.7444 67.0726 13.398 67.5764 13.398H71.1661C71.8903 13.398 72.3312 13.8389 72.3312 14.5946V27.3809C72.3312 27.8847 72.5831 28.1051 72.9294 28.357C73.2128 28.5459 73.4962 28.7663 73.4962 29.2387C73.4962 29.6795 73.1499 29.9944 72.646 29.9944H67.6079Z" fill="currentColor"></path>
    <path d="M11.2559 14.2153C11.2559 13.7705 11.6164 13.41 12.0611 13.41H12.5058C16.6479 13.41 20.0057 16.7604 20.0057 20.8933V29.2082C20.0057 29.653 19.6452 30.0135 19.2005 30.0135H18.7557C14.6137 30.0135 11.2559 26.6631 11.2559 22.5302V14.2153Z" fill="currentColor"></path>
    <path d="M0.00585938 4.43493C0.00585938 2.02408 1.96459 0.0697021 4.3808 0.0697021C6.79701 0.0697021 8.75573 2.02408 8.75573 4.43493V22.5194C8.75573 26.6523 5.39792 30.0027 1.25584 30.0027H0.811088C0.366373 30.0027 0.00585938 29.6422 0.00585938 29.1974V4.43493Z" fill="currentColor"></path>
    <ellipse cx="14.6947" cy="7.4892" rx="3.44081" ry="3.43317" fill="#F4448E"></ellipse>
</svg>